<svg xmlns="http://www.w3.org/2000/svg" viewBox="0 0 24 24"><title>49.World</title><g id="_49.World" data-name="49.World"><path d="M6,14.447,2.7,11A5.995,5.995,0,1,1,12,6a5.965,5.965,0,0,1-2.7,5ZM6,2A3.99,3.99,0,0,0,3.879,9.376l.189.156L6,11.553,8.121,9.376A3.99,3.99,0,0,0,6,2Z"/><rect x="5" y="5" width="2" height="2"/><path d="M12,24A12.013,12.013,0,0,1,0,12H2A10,10,0,1,0,12,2V0a12,12,0,0,1,0,24Z"/><polygon points="4.707 19.707 3.293 18.293 4.586 17 6.586 17 8 15.586 8 14 10 14 10 16.414 7.414 19 5.414 19 4.707 19.707"/><polygon points="16.293 22.707 13 19.414 13 17.586 15 15.586 15 15.236 14 13.236 14 10.586 16.178 8.408 16.882 7 15.882 5 17.105 2.553 18.895 3.447 18.118 5 19.118 7 17.822 9.592 16 11.414 16 12.764 17 14.764 17 16.414 15 18.414 15 18.586 17.707 21.293 16.293 22.707"/></g></svg>